<?xml version="1.0" encoding="utf-8"?>
<!-- Generator: Adobe Illustrator 17.1.0, SVG Export Plug-In . SVG Version: 6.00 Build 0)  -->
<!DOCTYPE svg PUBLIC "-//W3C//DTD SVG 1.1//EN" "http://www.w3.org/Graphics/SVG/1.1/DTD/svg11.dtd">
<svg version="1.1" id="Layer_1" xmlns="http://www.w3.org/2000/svg" xmlns:xlink="http://www.w3.org/1999/xlink" x="0px" y="0px"
	 viewBox="0 0 67.5 67.5" enable-background="new 0 0 67.5 67.5" xml:space="preserve">
<path fill="#FFFFFF" d="M4.8,33.8c0,11.5,6.7,21.4,16.3,26.1L7.3,22C5.7,25.6,4.8,29.6,4.8,33.8 M53.3,32.3c0-3.6-1.3-6.1-2.4-8
	c-1.5-2.4-2.8-4.4-2.8-6.8c0-2.7,2-5.1,4.9-5.1c0.1,0,0.3,0,0.4,0c-5.2-4.7-12-7.6-19.6-7.6c-10.1,0-19,5.2-24.2,13.1
	c0.7,0,1.3,0,1.9,0c3,0,7.7-0.4,7.7-0.4c1.6-0.1,1.7,2.2,0.2,2.4c0,0-1.6,0.2-3.3,0.3l10.5,31.4l6.3-19l-4.5-12.4
	c-1.6-0.1-3-0.3-3-0.3c-1.6-0.1-1.4-2.5,0.2-2.4c0,0,4.8,0.4,7.6,0.4c3,0,7.7-0.4,7.7-0.4c1.6-0.1,1.7,2.2,0.2,2.4
	c0,0-1.6,0.2-3.3,0.3l10.5,31.1l2.9-9.6C52.6,37.9,53.3,34.8,53.3,32.3 M34.3,36.3l-8.7,25.2c2.6,0.8,5.3,1.2,8.2,1.2
	c3.4,0,6.6-0.6,9.6-1.6c-0.1-0.1-0.1-0.3-0.2-0.4L34.3,36.3z M59.2,19.9c0.1,0.9,0.2,1.9,0.2,3c0,2.9-0.6,6.2-2.2,10.4l-8.8,25.6
	c8.6-5,14.4-14.3,14.4-25C62.7,28.7,61.4,24,59.2,19.9"/>
<path fill="#FFFFFF" d="M0,33.8c0,18.6,15.1,33.8,33.8,33.8c18.6,0,33.8-15.1,33.8-33.8C67.5,15.1,52.4,0,33.8,0
	C15.1,0,0,15.1,0,33.8 M1.5,33.8C1.5,16,16,1.5,33.8,1.5S66,16,66,33.8S51.5,66,33.8,66S1.5,51.5,1.5,33.8"/>
</svg>
