<?xml version="1.0" encoding="utf-8"?>
<!-- Generator: Adobe Illustrator 18.1.0, SVG Export Plug-In . SVG Version: 6.00 Build 0)  -->
<!DOCTYPE svg PUBLIC "-//W3C//DTD SVG 1.1//EN" "http://www.w3.org/Graphics/SVG/1.1/DTD/svg11.dtd">
<svg version="1.1" id="serif_type" xmlns="http://www.w3.org/2000/svg" xmlns:xlink="http://www.w3.org/1999/xlink" x="0px" y="0px"
	 viewBox="120 0 640 864" enable-background="new 120 0 640 864" xml:space="preserve">
<path fill="#0E1030" d="M195,535.7c-3.4-6.1,8.7-25.5,17.1-27.9c22.3,24.8,55.3,56.5,73.1,66.1c-1.1,5.3-23.9,17.2-27.1,20.5
	C252.1,586,207.3,547.6,195,535.7"/>
<path fill="#0E1030" d="M253.3,656.7c-8,1.4-15.9,1.3-21.7-0.3c-16.8-4.7-34.5-29.1-36.4-50.1l-0.3-3.2l14.9-18.6l4.4,0.6
	c8,1.1,14.7,1.1,21-0.1c11.6-2.1,22.7-8.3,34.1-18.8l4.3-4.1l5.8,3.5c6.1,3.9,13.2,8.5,20.3,12.8l0.3,0.2c2.1,1.4,4.6,3,7.1,4.6
	l4.6,2.8l-1,5.3c-3.9,20.4-11.9,36.6-23.8,48.1C275.1,650.8,262.1,655.1,253.3,656.7C253.3,656.7,253.3,656.7,253.3,656.7"/>
<path fill="#A6A8AB" d="M301.4,590.6c-2.4-1.5-4.8-3-7.1-4.6c-6.7-4-13.2-8.2-19.8-12.5c-0.2-0.1-0.3-0.2-0.5-0.3
	c-22.8,21.3-42.1,22.7-59.5,20.3c-3.3,4.1-6.5,8.2-9.8,12.2c1.6,17.1,16.6,38.1,29.7,41.8C247.2,651.2,290.5,647.7,301.4,590.6"/>
<path fill="#F1F1F2" d="M263.3,587.1c-16.2,9.4-34.1,11.5-45.4,9.5c-3.2,3.9-6.3,7.9-9.5,11.8c13.7,14.4,31.9,15.8,52.5,5.8
	C260.6,605.2,261.9,596.1,263.3,587.1"/>
<path fill="#0E1030" d="M203.6,516.1c-6,0.2-18.1-19-17.4-27.4c27.2-8.3,63.4-22.9,76.8-34.1c4,3.3,6.6,28.5,8.3,32.8
	C262.5,488.8,217.1,510.6,203.6,516.1"/>
<path fill="#0E1030" d="M196.6,541.3c-6.6,1.5-13.4,0.9-19.7-1.8c-7.8-3.2-14.6-9.7-18.8-17.7c-4.7-9-5.3-18.6-1.9-27
	c4.9-12,15.4-21.1,27.6-23.9c4-0.9,8.1-1.1,12.2-0.5c2.5,0.3,4.9,1,7.3,2c12.5,5.1,21.6,18,21.9,31.3
	C225.8,521,213.2,537.6,196.6,541.3L196.6,541.3z"/>
<path fill="#A6A8AB" d="M199.6,481.7c-1.6-0.6-3.2-1.1-4.9-1.3c-12.6-1.7-24.5,6.9-29,18.1c-5,12.4,3.9,27.2,15.2,31.9
	c17.4,7.3,35-8.6,34.5-26.3C215,494.5,208.3,485.2,199.6,481.7"/>
<path fill="#F1F1F2" d="M208.5,504.8c-0.4,1.4-1,2.8-1.7,4.2c-5.4,10.1-17.3,15.8-26.9,15.1c-10.7-0.8-15.7-12.9-12.9-23.1
	c4.3-15.7,23.9-23.1,35.1-16.2C208.2,488.5,210.7,497,208.5,504.8"/>
<g>
	<g>
		<g>
			<path fill="#0E1030" d="M397.7,119.7c-5.7,26-19.4,101.3-19.3,117.5c16.2,0.1,28.3-1.5,28.9-7.3
				C407.9,224,404.2,143.2,397.7,119.7"/>
			<path fill="#0E1030" d="M383.9,105.2c3.3-2.3,7.3-3.6,11.6-3.8c10.2-0.3,19,4.2,23.6,12.2c4.3,7.6,3.9,17-1.2,25
				c-2,3.2-4.6,5.9-7.5,7.9c-5.3,3.7-11.5,5.1-17.3,4c-5.9-1.1-11-4.7-14.6-10.2C370.9,128.9,373.4,112.5,383.9,105.2
				C383.9,105.2,383.9,105.2,383.9,105.2"/>
			<path fill="#3C95BE" d="M385.9,135.2c6.6,10,18.4,7.7,24.3-1.5c7.2-11.3-0.5-23.7-14.3-23.2C383.9,110.9,379.8,125.8,385.9,135.2
				"/>
			<path fill="#5DC1EA" d="M408.3,124.9c3.4-5.4-1.2-11-7.7-12.2c-7.9-1.5-12.2,4.9-8.1,12C396.2,130.8,405.2,129.9,408.3,124.9"/>
			<path fill="#FFFFFF" d="M402.9,117.4c0.5-2.1-1.6-3.5-3.9-3.2c-2.8,0.3-3.5,2.8-1.4,4.7C399.5,120.5,402.4,119.4,402.9,117.4"/>
			<g opacity="0.2">
				<g>
					<defs>
						<rect id="SVGID_3_" x="124.6" y="800.7" width="469" height="58.9"/>
					</defs>
					<clipPath id="SVGID_1_">
						<use xlink:href="#SVGID_3_"  overflow="visible"/>
					</clipPath>
					<path clip-path="url(#SVGID_1_)" fill="#0E1030" d="M593.6,830.1c0,16.3-105,29.5-234.5,29.5c-129.5,0-234.5-13.2-234.5-29.5
						c0-16.3,105-29.5,234.5-29.5C488.6,800.7,593.6,813.9,593.6,830.1"/>
				</g>
			</g>
			<path fill="#0E1030" d="M398.5,337.6c-2.7-7.2-27-10.7-34.7-5.2c-11.1,34-14.9,68.9,4.9,109.3c5.1,2.8,30.5-8.2,35.4-8.6
				C382.6,403.6,387.9,367.5,398.5,337.6"/>
			<path fill="#0E1030" d="M472.2,434.7c-1.6-5.8,14.4-22,22.7-23.2c14.3,24.6,31.1,46.1,50.8,67c-2.1,5.2-23.9,17.9-28,17.4
				C508.9,481.7,480.6,446.7,472.2,434.7"/>
			<path fill="#0E1030" d="M610.6,411.4c5.4-2.6,24.3,10,27.1,17.9c-21.5,18.7-39.4,39.2-56.2,62.6c-5.5-1.1-22.1-20.1-22.4-24.2
				C571.4,456.3,600.4,421.9,610.6,411.4"/>
			<path fill="#0E1030" d="M343.5,600.6c4-4.5,26.3-0.3,31.9,6c-12.5,25.6-21,51.5-27.4,79.5c-5.5,1.1-28.2-10-30-13.6
				C324.9,657.3,338.3,614.3,343.5,600.6"/>
			<path fill="#0E1030" d="M301,715c4-4.5,26.3-0.3,31.9,6c-12.5,25.6-21,51.5-27.4,79.5c-5.5,1.1-28.2-10-30-13.6
				C282.5,771.7,295.8,728.7,301,715"/>
			<path fill="#0E1030" d="M487.4,661.8c-2.4,5.5-25,8.1-32.3,3.9c4.3-28.2,4.7-55.4,2.4-84c4.9-2.7,29.9,1.1,32.7,4
				C488.2,602.2,488.3,647.3,487.4,661.8"/>
			<path fill="#0E1030" d="M483,788.9c-2.4,5.5-25,8.1-32.3,3.9c4.3-28.2,4.7-55.4,2.4-84c4.9-2.7,29.9,1.1,32.7,4
				C483.8,729.3,483.9,774.3,483,788.9"/>
			<path fill="#0E1030" d="M572.8,473c9.9,10.1,15.3,27.7,6.5,41.9c-9.1,14.8-27,22-42.5,17.1c-2.4-0.7-4.6-1.8-6.8-3.1
				c-2.3-1.4-4.4-3.1-6.3-5.1c-7.5-7.7-11.3-18.8-9.9-29c1.7-12.4,9.9-23.3,21.4-28.7c10.5-4.9,21.9-4.2,31.4,1.8
				C568.8,469.3,570.9,471,572.8,473"/>
			<path fill="#A6A8AB" d="M535,520.8c1.5,0.9,3,1.6,4.7,2.1c12.2,3.8,25.3-2.8,31.6-13c7-11.4,0.6-27.4-9.7-33.9
				c-16-10.1-36,2.7-38.4,20.2C521.8,505.6,527,515.9,535,520.8"/>
			<path fill="#F1F1F2" d="M529.9,502.1c0.5,1.3,1.2,2.5,2.1,3.6c6.2,8.3,17.9,10.8,26.8,7.7c9.9-3.5,13.1-16.3,9.3-25.4
				c-5.8-14-24.9-16.1-34.6-6.7C528.3,486.5,526.9,495.2,529.9,502.1"/>
			<path fill="#0E1030" d="M329.4,725.2c-14.1,0.9-31-6.5-36.1-22.3c-5.3-16.5,0.9-34.8,14.7-43.4c2.1-1.3,4.4-2.4,6.8-3.1
				c2.5-0.8,5.2-1.3,8-1.5c10.8-0.7,21.7,3.6,28.4,11.3c8.3,9.4,11.3,22.7,7.8,35c-3.1,11.1-11.1,19.4-21.8,22.7
				C334.8,724.6,332.2,725,329.4,725.2"/>
			<path fill="#A6A8AB" d="M317.7,665.4c-1.6,0.5-3.2,1.2-4.7,2.1c-10.8,6.8-14.4,21-10.7,32.5c4.1,12.8,20.4,18.3,32.1,14.7
				c18-5.6,21.3-29.1,9.7-42.3C337.8,665.3,326.7,662.5,317.7,665.4"/>
			<path fill="#F1F1F2" d="M332.6,669.1c-1.3-0.4-2.7-0.7-4.1-0.8c-10.4-0.7-19.8,6.6-23.3,15.4c-3.8,9.8,3.9,20.6,13.2,23.6
				c14.4,4.6,28.4-8.5,27.6-21.9C345.6,678.1,339.8,671.3,332.6,669.1"/>
			<path fill="#0E1030" d="M503,698c-3.2,13.7-15.1,27.8-31.8,28.1c-17.4,0.3-33.1-10.9-37.3-26.6c-0.6-2.4-1-4.9-1-7.4
				c0-2.7,0.3-5.4,0.9-8.1c2.4-10.5,9.7-19.7,19-24c11.3-5.2,25-4.2,35.7,2.6c9.7,6.2,15.4,16.2,15.4,27.4
				C504,692.7,503.7,695.4,503,698"/>
			<path fill="#A6A8AB" d="M442.4,691.9c0,1.7,0.3,3.4,0.7,5.1c3.3,12.3,15.9,19.8,28,19.6c13.4-0.2,23.4-14.3,23.4-26.5
				c-0.1-18.9-21.7-28.8-37.7-21.5C448.1,672.7,442.2,682.5,442.4,691.9"/>
			<path fill="#F1F1F2" d="M454.2,703.3c1.1,0.9,2.2,1.7,3.5,2.3c9.3,4.6,20.8,1.6,27.4-5.1c7.3-7.5,4.4-20.5-3-26.8
				c-11.5-9.9-29.5-3.2-33.9,9.5C445.8,690,448.4,698.4,454.2,703.3"/>
			<path fill="#0E1030" d="M517.3,377.1c-25.4,0-100-3.5-173.5-8.2c-138-8.8-141.8-12.5-145.2-15.7c-3.2-3.1-6.5-6.3-5.4-85.1
				c1.1-78.4,4.5-81.9,7.3-84.8c5.9-6.1,37.9-20.1,56.7-22.3c1.1-0.1,2.5-0.2,4.4-0.2c19.3,0,97.1,6.3,164,12.5
				c37.2,3.4,71.1,6.9,95.6,9.7c45.8,5.2,47.2,6.5,50,9.2c3.7,3.5,6.6,6.3,2.4,81.9c-1,17.1-2.2,35.2-3.4,49.7
				c-2,24.8-2.6,25.8-4,28c-4.3,6.7-30.8,22.5-36.9,24.5C527.3,376.8,525.1,377.1,517.3,377.1"/>
			<path fill="#A6A8AB" d="M207.4,189.8c3.5-3.7,33.1-17.3,50.9-19.4c17.8-2.1,300.7,23.3,306.2,28.6c5.2,5-4.5,144.5-6.5,147.6
				c-2.4,3.8-25.9,18.6-31.9,20.6c-10,3.3-313.6-13.7-320.9-20.9C200.4,341.6,202.6,194.8,207.4,189.8"/>
			<path fill="#0E1030" d="M324.3,617.1c-4.3,0-7.4-0.4-10.2-2.4c-2.9-2.2-5-3.7-12.7-35.3c-4.1-16.9-8.9-39-13.5-62.1
				c-4.7-23.8-8.8-46.1-11.3-62.7c-4.8-31-3.5-34.7-1.1-38.3c2.8-4.1,5.9-8.7,94.7-23.5c39.6-6.6,88.5-13.7,98.3-13.7
				c1.3,0,2.2,0.1,3.2,0.3c5.9,1.3,8.2,7.1,9.6,10.6c6.4,16.1,17.8,64.9,25.6,101.7c17.6,82.5,15.2,86,12.6,89.8
				c-2.5,3.6-5.6,8.2-90.8,22.3C388.4,610.4,340.4,617.1,324.3,617.1"/>
			<path fill="#0E1030" d="M271,433.5c12.4-6.6,30.9-6.9,42.1,5.4c11.7,12.9,13.6,32.1,4.6,45.6c-1.4,2.1-3,4-4.9,5.7
				c-2,1.8-4.2,3.4-6.6,4.6c-9.5,5.1-21.2,5.6-30.6,1.4c-11.4-5.1-19.6-16.1-21.6-28.6c-1.7-11.4,2.1-22.2,10.5-29.7
				C266.4,436.3,268.6,434.8,271,433.5"/>
			<path fill="#A6A8AB" d="M306.4,483.2c1.3-1.2,2.4-2.4,3.4-3.9c7-10.6,4.4-25.1-3.7-34c-9-9.9-26.2-8.2-35.3-0.2
				c-14.1,12.5-7.4,35.3,8.7,42.5C288.1,491.5,299.4,489.5,306.4,483.2"/>
			<path fill="#F1F1F2" d="M268.9,472.9c6.5,5,13.4,6.6,19.6,7.2c4.2,1.2,5.7,0.2,10,1c2-1,4-2.3,5.6-4c5.7-5.6,7.6-15.1,4.8-22.6
				c-0.5-1.4-1.2-2.6-2-3.8c-6.2-8.8-18.3-11.2-27.9-7.6c-10.6,4-14.5,18.1-11,27.7C268.3,471.6,268.6,472.2,268.9,472.9"/>
			<path fill="#0E1030" d="M508,438.7c-6.6,12.5-21.8,23-38,18.9c-16.9-4.2-29.1-19.1-29.2-35.3c0-2.5,0.3-5,0.9-7.4
				c0.6-2.6,1.6-5.1,2.9-7.6c5.1-9.5,14.5-16.5,24.6-18.2c12.3-2.1,25.3,2.4,33.8,11.7c7.8,8.5,10.7,19.6,7.8,30.5
				C510.3,433.8,509.3,436.3,508,438.7"/>
			<path fill="#A6A8AB" d="M451,417.1c-0.4,1.7-0.6,3.4-0.6,5.1c0.1,12.7,10.3,23.3,22,26.2c13,3.2,26.3-7.7,29.4-19.5
				c4.8-18.3-13.5-33.4-30.9-30.5C461.5,400,453.3,408,451,417.1"/>
			<path fill="#F1F1F2" d="M474.9,444.3c0.8,0.1,1.5,0.1,2.2,0.1c1.4-0.7,2.6-1.4,3.8-2.2c6.4-7.8,12.2-15.8,16.4-24.9
				c-0.2-0.8-0.3-1.6-0.6-2.3c-2.4-7.7-10.1-13.6-18-14.5c-1.4-0.2-2.9-0.1-4.3,0.1c-10.7,1.5-18.3,11.3-19.3,21.5
				C454,433.3,464.7,443.2,474.9,444.3"/>
			<path fill="#0E1030" d="M279.2,421.2c5.8-8.2,186.5-35.4,194.1-33.8c7.6,1.6,46.9,181.7,42.9,187.3c-5.2,7.2-193.2,36.8-200,32
				C309.6,602,273.8,428.9,279.2,421.2"/>
			<path fill="#A6A8AB" d="M283.5,421.6c5.6-8.2,179-34.6,186.3-32.9c7.3,1.6,45.8,181.8,42,187.4c-4.9,7.2-185.4,36-191.9,31.1
				C313.4,602.3,278.3,429.2,283.5,421.6"/>
			<path fill="#F1F1F2" d="M289.9,425.3c5.3-7.8,169.6-32.8,176.6-31.2c7,1.5,43.4,172.3,39.8,177.6c-4.7,6.8-175.7,34.1-181.9,29.5
				C318.3,596.7,285,432.5,289.9,425.3"/>
			<path fill="#F1F1F2" d="M257.9,175c-7.3,2.9-13.1,144.1-9.4,150c4.5,7.1,299,24,302.7,19.5c3.8-4.6,12.7-136.3,8.7-140.8
				C556.7,200.2,268,170.9,257.9,175"/>
			<path fill="#A6A8AB" d="M361.8,577c-0.2-0.6-0.5-1.2-0.9-1.8c-2.8-4-8.4-5.1-12.8-3.5c-4.8,1.8-6.6,8.3-5,12.7
				c2.5,6.8,11.7,7.6,16.5,2.9C362.2,584.8,363,580.4,361.8,577"/>
			<path fill="#A6A8AB" d="M383.5,585c0.6-0.1,1.3-0.3,1.9-0.6c4.4-2,6.4-7.2,5.6-11.7c-0.9-5-6.8-7.9-11.4-7.1
				c-7.1,1.2-9.5,9.9-5.7,15.5C375.9,584.1,380,585.7,383.5,585"/>
			<path fill="#0E1030" d="M358.4,575.5c-0.2-0.6-0.5-1.1-0.8-1.6c-2.5-3.6-7.5-4.5-11.3-3.1c-4.3,1.6-5.9,7.3-4.5,11.3
				c2.2,6.1,10.4,6.8,14.7,2.5C358.8,582.3,359.6,578.5,358.4,575.5"/>
			<path fill="#0E1030" d="M381.8,582.3c0.6-0.1,1.1-0.3,1.7-0.5c4-1.8,5.8-6.5,5.1-10.6c-0.8-4.5-6.2-7.1-10.3-6.4
				c-6.4,1.1-8.5,9-5.1,14C374.9,581.4,378.6,582.9,381.8,582.3"/>
			<path fill="#0E1030" d="M234.5,843.6c-55.1,0-61.1-10.4-63.7-14.9c-9-15.6-3.7-41.4,5.1-58.7c9.4-18.6,23.2-30.3,37.9-32
				c2.9-0.3,5.9-0.5,8.8-0.5c42.8,0,72.3,34.3,80.3,44.8c4.9,6.4,20.4,28.5,16.1,44.4c-2.1,7.5-10.1,10.8-33,13.8
				C270.7,842.4,251.9,843.6,234.5,843.6L234.5,843.6z"/>
			<path fill="#A6A8AB" d="M179.1,823.9c9.8,17.1,128.3,9.3,130.7,0.3c5.3-19.3-39.8-83.1-94.9-76.8
				C186.5,750.7,167.6,804,179.1,823.9"/>
			<path fill="#F1F1F2" d="M183.2,820.4c8.8,15.3,114.8,8.3,117,0.2c4.7-17.3-35.6-74.4-85-68.7
				C189.8,754.9,172.9,802.6,183.2,820.4"/>
			<path fill="#0E1030" d="M489.4,845.8c-62.1,0-67.4-14-69.1-18.6c-4.4-11.8,0.1-29.1,12-46.3c15.5-22.4,37.2-35.8,58-35.8h0
				c29.3,0,54.7,13.4,69.8,36.8c10.5,16.2,13.8,34.3,8.5,46c-3.2,7-12.6,11.3-31.4,14.3C523.7,844.6,506.3,845.8,489.4,845.8
				L489.4,845.8z"/>
			<path fill="#A6A8AB" d="M429.2,823.9c6.9,18.5,124.3,14.4,130.7,0.3c8.3-18.3-14.5-69.5-69.7-69.5
				C454.3,754.7,421.7,804,429.2,823.9"/>
			<path fill="#F1F1F2" d="M440,819c6,16.6,107.4,12.9,112.9,0.2c7.1-16.4-12.5-62.4-60.1-62.4C461.7,756.8,433.6,801.1,440,819"/>
			<path fill="#0E1030" d="M669.7,451.7c-17.6,0-34.9-4.6-50.2-13.3c-11-6.3-21.3-30.1-24.2-40.9c-2.1-7.8-1.9-13.1,0.5-17.1
				c4.1-6.8,12.8-8.4,27.2-10.9c8.9-1.6,19.9-3.5,30.3-7.1c11.7-3.9,21.9-13.3,28.6-19.6c6.3-5.8,10-9.2,15.4-9.2
				c0.6,0,1.1,0,1.6,0.1c22.1,3.4,40.9,26.8,50.2,45.8c9.1,18.5,5.5,25,4.4,27.1C738.6,433.5,704.9,451.7,669.7,451.7L669.7,451.7z"
				/>
			<path fill="#A6A8AB" d="M604,385.2c-3.7,6.2,10.9,39.7,20.2,44.9c46.7,26.6,102.4,5.7,121.1-28.2c4.3-7.7-19.9-54.6-47.7-58.9
				c-4.2-0.7-19.4,21-41.1,28.3C632.4,379.4,607.4,379.4,604,385.2"/>
			<path fill="#F1F1F2" d="M609.7,386.6c-2.9,4.9,8.6,31.3,15.9,35.5c36.8,21,90.2-4.6,105-31.4c3.4-6.1-14.6-37.5-36.5-40.9
				c-3.3-0.5-17.1,17.9-37.9,25.5C637.4,382.3,612.4,382.1,609.7,386.6"/>
			<path fill="#0E1030" d="M286,289.1c28.6,18.3,56.5,7.4,67.5-23.5c13.5-37.8-22-93.5-63.8-67C259.1,218.1,253.3,268.2,286,289.1"
				/>
			<path fill="#3C95BE" d="M292.1,280.8c24.3,15.6,48,6.3,57.4-20c11.5-32.1-18.7-79.4-54.2-56.9
				C269.3,220.4,264.4,263.1,292.1,280.8"/>
			<path fill="#5DC1EA" d="M300.8,208.4c21.7-0.7,37.2,11,45.5,26.2c-6.2-23.6-26.2-42.4-48.5-26.6c-0.3,0.2-0.6,0.5-0.9,0.7
				C298.2,208.5,299.5,208.4,300.8,208.4"/>
			<path fill="#5DC1EA" d="M330.6,233.7c8.6-1.4,10.2-8.4,4.7-16.5c-6.7-9.9-25-14.7-25.1-2.1C310.1,224.3,320.8,235.3,330.6,233.7"
				/>
			<path fill="#5DC1EA" d="M313.1,238.9c5.5-1.5,7.1-6.3,4.2-11.1c-3.5-5.9-14.6-7.7-15.7,0.5C300.9,234.3,306.9,240.7,313.1,238.9"
				/>
			<path fill="#F1F1F2" d="M327.2,222c4.3-0.9,5.3-4.5,2.8-8.4c-3.1-4.8-11.9-6.7-12.3-0.4C317.3,217.8,322.3,223,327.2,222"/>
			<path fill="#0E1030" d="M305.9,248.4c-10.2-2.8-21.1-9.3-24.1-20.1c-5.3,13.4-4.3,29.2,4.5,40.6c2-7.5,12.2-10.4,19.6-11.6
				c10.5-1.6,26.9-1.7,35.4,6.1c0.9,0.9,1.7,1.7,2.4,2.6c1.1-2.1,2.2-4.4,3-6.8c2.3-6.5,2.7-13.7,1.6-20.6
				C347.1,242.8,327.4,254.3,305.9,248.4"/>
			<path fill="#0E1030" d="M527,303.6c-7.3,4.7-15.8,7.1-24.7,5.7c-16.9-2.7-29.1-17-33-32.9c-5.9-24.1,11.1-72,42.5-66.5
				c27.5,4.8,42.6,37.7,36.6,63.2C545.8,284.9,537.7,296.7,527,303.6"/>
			<path fill="#3C95BE" d="M526.4,296.7c-6.1,4.1-13.2,6.2-20.5,5c-14.1-2.3-24.2-14.6-27.4-28.2c-4.9-20.7,9.4-61.9,35.6-57.2
				c22.9,4.1,35.4,32.3,30.4,54.2C542.1,280.7,535.3,290.8,526.4,296.7"/>
			<path fill="#5DC1EA" d="M534.8,248c-0.8,2.5-2.2,4.7-4.5,6c-4.4,2.6-10,1.6-13.9-1.4c-6-4.5-11.4-18.9-3.1-23.6
				c7.2-4.1,17.1,0.6,20.6,7.7C535.5,240.1,535.9,244.4,534.8,248"/>
			<path fill="#5DC1EA" d="M513.9,253.9c-0.5,1.2-1.3,2.3-2.5,3c-2.3,1.4-5,1.1-6.9-0.1c-2.8-1.9-4.9-8.4-0.6-11
				c3.8-2.2,8.5-0.4,10,2.8C514.6,250.1,514.6,252.1,513.9,253.9"/>
			<path fill="#5DC1EA" d="M514.5,231.1c12.9,5.3,22.4,14.7,28,25.4c-2.8-16.4-13-31.7-28.2-34.6c-7.4-1.4-13.7,1.4-18.8,6.6
				C501.4,227.6,507.8,228.3,514.5,231.1"/>
			<path fill="#0E1030" d="M510,269.4c-12.4-3.5-20.2-11.1-20.9-24.2c-0.2-3.3-0.1-6.6,0.2-10c-6.1,11.3-8.5,26.1-6.2,35.8
				c1,4.1,2.6,8,4.9,11.6c6.7-4,18.1-4.3,24-4.3c7.7-0.1,16.9-0.6,22.4,5.8c0.2,0.2,0.3,0.4,0.5,0.6c4-4.8,6.9-10.6,8.2-16.3
				c0.3-1.3,0.5-2.6,0.7-4C533.6,270.4,521.6,272.7,510,269.4"/>
			<path fill="#F1F1F2" d="M529.9,238.7c0,1.2-0.4,2.3-1.3,3c-1.7,1.4-4.3,1.1-6.5-0.2c-3.3-1.9-7.6-8.5-4.5-11
				c2.8-2.2,7.8-0.3,10.4,3C529.2,234.9,529.9,236.9,529.9,238.7"/>
			<path fill="#A6A8AB" d="M376.1,273.1c-0.2-2.5,25.1,7.4,25.1,10.5C401.1,300,381.6,333.9,376.1,273.1"/>
		</g>
	</g>
	<g>
		<path fill="#1F3244" d="M465.1,502.2c-9.1,7.5-20.3,12.9-32.8,15c-37,6.1-71.9-18.3-77.9-54.6c-2-12.3-0.5-24.4,3.9-35.2
			c-17.7,14.7-27.3,37.8-23.4,61.8c6,36.3,40.9,60.7,78,54.6C437.2,539.7,456.5,523.3,465.1,502.2"/>
		<path fill="#3C95BE" d="M430.1,509.5c0.4-0.1,0.8-0.1,1.2-0.2c9.6-1.8,18.7-6,26.3-12c3.4-9.5,4.4-19.9,2.5-30.5
			c-5.9-31.8-36.5-52.9-68.3-46.9c-10,1.9-18.9,6.2-26.3,12.2c-3.7,9.5-4.8,19.8-3.1,29.9C367.6,493.5,398,514.8,430.1,509.5"/>
	</g>
</g>
<path fill="#F0656A" d="M319.9,115.4c7.5-31.5,36.2-60.7,69.6-68.5c12-2.8,24.2-3.3,36-1.8c-33.3-12-72.5-5.3-93.6,18.6
	c-12.4,14-16.4,34.2-12.4,53.8C319.6,116.8,319.7,116.1,319.9,115.4"/>
<path fill="#F0656A" d="M288.5,88.8c1,8.7,58.9,17.7,68.7,15.9C350.6,101.4,287.4,79.8,288.5,88.8"/>
<path fill="#F0656A" d="M352,2.5c-7.4,4.7,26.5,79.7,32.4,87.8C384.6,83,359.7-2.3,352,2.5"/>
<path fill="#F0656A" d="M505.8,92.7c-4.4-7.6-48.7,13.1-57,18.6C456.1,111.8,510.4,100.6,505.8,92.7"/>
<path fill="#F0656A" d="M416.5,74.3c-1.7,8,11.5,18.5,16.5,7C436.7,72.5,419.3,60.8,416.5,74.3"/>
<path fill="#F0656A" d="M453.3,71.1c1.8-7.5-13.8-6.9-11.5,0.6C443.1,75.9,452.1,76.1,453.3,71.1"/>
</svg>
